<?xml version="1.0" standalone="no"?>
<!DOCTYPE svg PUBLIC "-//W3C//DTD SVG 20010904//EN"
 "http://www.w3.org/TR/2001/REC-SVG-20010904/DTD/svg10.dtd">
<svg version="1.0" xmlns="http://www.w3.org/2000/svg"
 width="256.000000pt" height="256.000000pt" viewBox="0 0 256.000000 256.000000"
 preserveAspectRatio="xMidYMid meet">
<metadata>
Created by potrace 1.14, written by Peter Selinger 2001-2017
</metadata>
<g transform="translate(0.000000,256.000000) scale(0.100000,-0.100000)"
fill="#000000" stroke="none">
<path d="M0 1280 l0 -1280 1280 0 1280 0 0 1280 0 1280 -1280 0 -1280 0 0
-1280z m630 1025 c13 -14 19 -25 13 -25 -6 0 -18 11 -27 25 -9 14 -15 25 -13
25 2 0 14 -11 27 -25z m65 -180 c71 -145 96 -280 81 -428 -8 -74 -29 -90 -47
-37 -13 35 -29 30 -29 -9 0 -22 -7 -29 -34 -39 -18 -7 -42 -22 -52 -33 l-19
-21 34 7 33 7 -40 -36 c-22 -20 -42 -45 -45 -56 -5 -21 7 -28 18 -10 3 5 16
15 28 20 12 6 -11 -20 -51 -59 -42 -41 -79 -68 -87 -65 -24 9 -66 80 -81 135
-18 71 -18 213 2 302 10 47 45 131 99 242 46 94 87 188 91 209 l7 39 24 -39
c13 -21 44 -79 68 -129z m-25 105 c6 -11 8 -20 6 -20 -3 0 -10 9 -16 20 -6 11
-8 20 -6 20 3 0 10 -9 16 -20z m45 0 c10 -11 16 -20 13 -20 -3 0 -13 9 -23 20
-10 11 -16 20 -13 20 3 0 13 -9 23 -20z m0 -80 c9 -16 13 -30 11 -30 -3 0 -12
14 -21 30 -9 17 -13 30 -11 30 3 0 12 -13 21 -30z m146 -77 c13 -16 12 -17 -3
-4 -10 7 -18 15 -18 17 0 8 8 3 21 -13z m1091 -168 c-61 -68 -74 -115 -82
-285 -6 -116 -13 -169 -28 -212 -29 -80 -43 -103 -36 -58 3 19 7 40 9 45 1 6
-3 19 -10 29 -8 10 -11 24 -8 32 3 8 -1 14 -11 14 -9 0 -16 5 -16 10 0 6 -6
10 -13 10 -8 0 -28 22 -46 49 -17 28 -45 61 -62 75 -37 31 -31 33 22 5 23 -11
43 -18 45 -16 6 5 -50 53 -68 59 -9 3 -4 17 16 47 50 72 142 148 229 191 45
22 84 40 86 40 1 0 -11 -16 -27 -35z m-53 21 c-20 -17 -49 -25 -55 -14 -4 6
-3 8 2 5 6 -3 16 -2 24 4 14 8 38 13 29 5z m-1102 -28 c-3 -8 -6 -5 -6 6 -1
11 2 17 5 13 3 -3 4 -12 1 -19z m1043 -3 c0 -2 -10 -9 -22 -15 -22 -11 -22
-10 -4 4 21 17 26 19 26 11z m-60 -38 c0 -2 -17 -19 -37 -38 l-38 -34 34 38
c33 34 41 42 41 34z m-973 -99 c-2 -18 -4 -4 -4 32 0 36 2 50 4 33 2 -18 2
-48 0 -65z m483 48 c0 -2 -7 -7 -16 -10 -8 -3 -12 -2 -9 4 6 10 25 14 25 6z
m-53 -12 c-3 -3 -12 -4 -19 -1 -8 3 -5 6 6 6 11 1 17 -2 13 -5z m463 -17 c0
-2 -10 -12 -22 -23 l-23 -19 19 23 c18 21 26 27 26 19z m-221 -11 c-2 -2 -20
-6 -39 -10 -25 -4 -31 -3 -20 4 14 9 69 15 59 6z m-398 -53 c13 -16 12 -17 -3
-4 -10 7 -18 15 -18 17 0 8 8 3 21 -13z m472 10 c-7 -2 -19 -2 -25 0 -7 3 -2
5 12 5 14 0 19 -2 13 -5z m107 3 c0 -2 -8 -10 -17 -17 -16 -13 -17 -12 -4 4
13 16 21 21 21 13z m-45 -16 c3 -6 -1 -7 -9 -4 -18 7 -21 14 -7 14 6 0 13 -4
16 -10z m-818 -67 c-3 -10 -5 -4 -5 12 0 17 2 24 5 18 2 -7 2 -21 0 -30z m804
-10 c13 -16 12 -17 -3 -4 -10 7 -18 15 -18 17 0 8 8 3 21 -13z m-814 -35 c-3
-8 -6 -5 -6 6 -1 11 2 17 5 13 3 -3 4 -12 1 -19z m-87 -8 c0 -5 -7 -7 -15 -4
-8 4 -15 8 -15 10 0 2 7 4 15 4 8 0 15 -4 15 -10z m687 4 c-3 -3 -12 -4 -19
-1 -8 3 -5 6 6 6 11 1 17 -2 13 -5z m279 -26 l29 -33 -32 29 c-18 17 -33 31
-33 33 0 8 8 1 36 -29z m-526 9 c0 -2 -12 -14 -27 -28 l-28 -24 24 28 c23 25
31 32 31 24z m337 -19 c-3 -8 -6 -5 -6 6 -1 11 2 17 5 13 3 -3 4 -12 1 -19z
m-247 -22 c0 -2 -8 -10 -17 -17 -16 -13 -17 -12 -4 4 13 16 21 21 21 13z
m-580 -10 c0 -2 -7 -7 -16 -10 -8 -3 -12 -2 -9 4 6 10 25 14 25 6z m660 -29
c0 -2 -17 -19 -37 -38 l-38 -34 34 38 c33 34 41 42 41 34z m77 -19 c24 -27 62
-100 42 -80 -35 32 -126 6 -192 -57 l-28 -26 11 30 c18 48 48 91 86 124 41 37
54 38 81 9z m34 -5 c13 -16 12 -17 -3 -4 -10 7 -18 15 -18 17 0 8 8 3 21 -13z
m-781 -6 c0 -1 -24 -25 -52 -52 l-53 -50 50 53 c46 48 55 57 55 49z m110 -72
c30 -30 52 -55 49 -55 -2 0 -29 25 -59 55 -30 30 -52 55 -49 55 2 0 29 -25 59
-55z m390 51 c0 -2 -8 -10 -17 -17 -16 -13 -17 -12 -4 4 13 16 21 21 21 13z
m454 -22 c5 -13 9 -14 21 -4 18 15 35 5 35 -21 0 -10 7 -19 15 -19 9 0 15 -9
15 -24 0 -14 5 -28 10 -31 6 -3 10 -15 10 -26 0 -11 4 -18 9 -15 5 4 1 -11 -9
-31 -10 -21 -44 -120 -76 -220 l-58 -183 -33 3 c-18 1 -35 7 -37 14 -7 16 -80
53 -106 53 -25 0 -25 1 0 43 29 49 59 176 66 283 4 52 11 97 15 100 5 3 9 14
9 25 0 25 35 60 54 53 8 -3 17 -1 21 5 9 16 32 13 39 -5z m-764 -71 l75 -78
-77 75 c-72 69 -83 80 -75 80 1 0 36 -35 77 -77z m921 60 c12 -16 12 -17 -1
-7 -8 6 -22 14 -30 17 -13 5 -12 6 1 6 9 1 23 -7 30 -16z m-704 -35 c-3 -7 -5
-2 -5 12 0 14 2 19 5 13 2 -7 2 -19 0 -25z m376 7 c17 -12 18 -26 15 -118 -3
-103 -3 -104 -35 -131 -45 -38 -83 -166 -59 -204 4 -6 -12 -14 -41 -20 -39 -9
-52 -8 -75 6 -15 9 -30 23 -34 31 -13 31 -17 233 -5 285 24 107 169 201 234
151z m44 -17 c-3 -8 -6 -5 -6 6 -1 11 2 17 5 13 3 -3 4 -12 1 -19z m310 -40
c-3 -8 -6 -5 -6 6 -1 11 2 17 5 13 3 -3 4 -12 1 -19z m-27 -2 c0 -2 -8 -10
-17 -17 -16 -13 -17 -12 -4 4 13 16 21 21 21 13z m-875 -56 c27 -27 47 -50 44
-50 -3 0 -27 23 -54 50 -27 28 -47 50 -44 50 3 0 27 -22 54 -50z m900 2 c6
-22 5 -23 -14 -12 -12 6 -26 8 -32 4 -6 -3 -3 6 6 20 19 29 28 26 40 -12z
m-608 -44 c-3 -8 -6 -5 -6 6 -1 11 2 17 5 13 3 -3 4 -12 1 -19z m603 7 c21
-25 -7 -224 -29 -211 -26 16 -100 -113 -101 -175 0 -47 -6 -51 -35 -24 l-25
22 24 74 c14 41 41 125 60 188 20 63 41 120 47 128 15 17 44 17 59 -2z m-800
-30 c19 -19 32 -35 29 -35 -3 0 -20 16 -39 35 -19 19 -32 35 -29 35 3 0 20
-16 39 -35z m-570 2 c0 -2 -15 -16 -32 -33 l-33 -29 29 33 c28 30 36 37 36 29z
m580 -52 c19 -19 32 -35 29 -35 -3 0 -20 16 -39 35 -19 19 -32 35 -29 35 3 0
20 -16 39 -35z m125 5 c10 -11 16 -20 13 -20 -3 0 -13 9 -23 20 -10 11 -16 20
-13 20 3 0 13 -9 23 -20z m53 -30 c-3 -18 -4 -18 -15 5 -6 14 -7 23 -2 19 5
-3 10 3 10 13 1 16 2 17 6 1 2 -10 3 -27 1 -38z m-113 -10 c10 -11 16 -20 13
-20 -3 0 -13 9 -23 20 -10 11 -16 20 -13 20 3 0 13 -9 23 -20z m-585 7 c0 -2
-10 -12 -22 -23 l-23 -19 19 23 c18 21 26 27 26 19z m297 -29 c-3 -8 -6 -5 -6
6 -1 11 2 17 5 13 3 -3 4 -12 1 -19z m283 -13 c13 -14 21 -25 18 -25 -2 0 -15
11 -28 25 -13 14 -21 25 -18 25 2 0 15 -11 28 -25z m360 5 c0 -5 -5 -10 -11
-10 -5 0 -7 5 -4 10 3 6 8 10 11 10 2 0 4 -4 4 -10z m764 -41 c11 -32 -1 -90
-14 -69 -5 8 -6 18 -3 24 3 5 1 6 -5 2 -7 -4 -12 -5 -12 -3 0 3 -7 21 -15 41
l-16 37 28 -3 c19 -2 30 -11 37 -29z m-1063 4 c13 -16 12 -17 -3 -4 -10 7 -18
15 -18 17 0 8 8 3 21 -13z m998 -27 c1 -6 -5 -1 -13 9 -8 11 -12 24 -8 29 5 9
20 -17 21 -38z m-1372 -73 c-2 -21 -4 -4 -4 37 0 41 2 58 4 38 2 -21 2 -55 0
-75z m114 -14 c42 -37 51 -53 56 -89 l6 -43 -79 7 c-43 4 -79 8 -80 9 -1 1 1
53 4 115 l5 113 19 -33 c10 -18 42 -54 69 -79z m240 94 c13 -16 12 -17 -3 -4
-10 7 -18 15 -18 17 0 8 8 3 21 -13z m-684 -50 c-3 -10 -5 -2 -5 17 0 19 2 27
5 18 2 -10 2 -26 0 -35z m744 32 c3 2 6 -5 6 -17 1 -11 1 -19 0 -17 -1 2 -11
15 -22 29 -12 15 -14 20 -4 12 9 -6 18 -10 20 -7z m942 0 c35 -15 90 -83 85
-106 -2 -11 12 -13 67 -11 l70 2 -40 -14 c-49 -18 -105 -77 -105 -110 0 -15
-13 -36 -35 -55 -42 -36 -79 -48 -100 -31 -8 7 -29 10 -47 8 l-31 -5 41 39
c23 21 42 41 42 43 0 3 -12 5 -26 5 -33 0 -64 17 -64 35 0 19 17 19 53 1 15
-8 27 -11 27 -6 0 5 -14 17 -31 26 l-32 16 24 12 c13 6 24 16 25 21 0 6 3 17
7 25 16 43 17 70 2 70 -8 0 -15 -7 -15 -15 0 -9 -9 -15 -21 -15 -12 0 -36 -15
-54 -33 -27 -27 -34 -30 -42 -18 -7 11 -2 26 19 55 15 21 28 47 28 56 0 15 10
18 59 19 33 0 75 -6 94 -14z m-1566 -27 c-3 -8 -6 -5 -6 6 -1 11 2 17 5 13 3
-3 4 -12 1 -19z m1392 0 c-6 -13 -22 -35 -36 -49 -21 -23 -22 -27 -8 -39 8 -7
15 -21 15 -31 0 -17 16 -24 43 -20 4 0 7 -6 7 -14 0 -26 -30 -30 -46 -6 -8 11
-20 21 -26 21 -6 0 -3 -10 8 -22 18 -20 18 -21 0 -15 -28 11 -74 50 -81 70
-11 30 4 57 31 57 17 0 23 4 18 12 -4 7 -3 8 5 4 6 -4 9 -12 6 -17 -4 -5 -2
-9 2 -9 14 0 33 23 33 40 0 17 19 40 32 40 5 0 3 -10 -3 -22z m-710 -60 c29
-32 31 -36 12 -31 -19 5 -51 48 -51 69 0 4 1 5 3 3 1 -2 17 -21 36 -41z m-69
8 c0 -2 -8 -10 -17 -17 -16 -13 -17 -12 -4 4 13 16 21 21 21 13z m46 -38 c7
-12 26 -47 41 -75 15 -29 31 -53 35 -53 13 0 10 8 -18 56 -15 25 -25 46 -23
48 2 2 37 11 77 21 87 21 133 15 184 -26 22 -17 49 -29 66 -29 33 0 78 -31 87
-59 4 -13 12 -17 24 -14 13 3 21 -2 26 -17 4 -12 5 -22 3 -24 -1 -1 -20 -9
-41 -19 -47 -21 -64 -22 -48 -3 7 8 11 27 9 43 -4 38 -71 75 -139 76 -92 1
-103 -49 -23 -103 24 -17 44 -35 44 -41 0 -5 10 -8 23 -6 12 2 16 2 10 0 -16
-5 -17 -39 -3 -48 6 -4 8 -15 5 -26 -8 -23 18 -25 55 -4 28 16 50 19 50 7 0
-14 -69 -42 -105 -42 -37 0 -85 18 -85 32 0 4 -24 8 -53 8 -71 0 -162 45 -217
107 -22 25 -38 48 -36 51 3 2 28 -4 56 -13 28 -9 54 -14 57 -11 7 6 1 8 -76
33 -50 17 -56 21 -69 61 -14 42 -14 42 20 75 35 34 42 33 64 -5z m834 33 c0
-17 -71 -71 -93 -71 l-21 0 22 16 c12 8 22 21 22 29 0 8 8 19 18 24 21 13 52
14 52 2z m-987 -48 c-7 -2 -19 -2 -25 0 -7 3 -2 5 12 5 14 0 19 -2 13 -5z
m1335 -59 c5 -70 -50 -130 -142 -155 -36 -10 -96 2 -96 19 0 20 38 42 71 42
29 0 47 8 71 30 18 16 27 30 21 30 -7 0 -13 -4 -13 -8 0 -5 -15 -17 -34 -27
-29 -16 -37 -17 -50 -5 -21 17 -12 46 27 87 31 33 69 43 117 32 21 -4 25 -12
28 -45z m-1638 21 c0 -20 -5 -25 -22 -24 -17 1 -19 2 -5 6 9 2 17 13 17 24 0
10 2 19 5 19 3 0 5 -11 5 -25z m1111 -41 c5 -15 8 -29 5 -31 -2 -2 -8 10 -14
26 -13 38 -5 41 9 5z m32 0 c3 -3 3 -13 0 -21 -5 -12 -7 -12 -14 -1 -15 23 -4
40 14 22z m-1165 -11 c-10 -2 -26 -2 -35 0 -10 3 -2 5 17 5 19 0 27 -2 18 -5z
m189 -1 c9 -6 12 -46 11 -142 -2 -119 1 -142 21 -192 26 -68 65 -104 122 -113
56 -10 84 12 130 104 46 90 55 100 104 122 38 17 70 18 143 3 22 -4 32 -24 12
-24 -20 0 -142 -63 -185 -96 -24 -18 -42 -27 -38 -19 12 33 -9 12 -23 -22 -37
-89 -46 -102 -87 -122 -43 -21 -86 -19 -132 7 -33 17 -72 65 -84 102 -6 19
-23 49 -37 65 l-26 30 22 -40 22 -40 -36 40 c-41 43 -80 154 -94 262 -7 52 -6
61 5 52 10 -9 13 -7 13 10 0 19 5 21 63 21 34 0 68 -4 74 -8z m763 -2 c0 -5
-5 -10 -11 -10 -5 0 -7 5 -4 10 3 6 8 10 11 10 2 0 4 -4 4 -10z m60 -4 c0 -2
-7 -7 -16 -10 -8 -3 -12 -2 -9 4 6 10 25 14 25 6z m-1003 -53 c-3 -10 -5 -2
-5 17 0 19 2 27 5 18 2 -10 2 -26 0 -35z m843 32 c10 -12 9 -15 -8 -15 -11 0
-25 7 -32 15 -10 12 -9 15 8 15 11 0 25 -7 32 -15z m414 -34 c-40 -38 -43 -39
-75 -28 -45 16 -59 26 -59 40 0 7 5 4 11 -5 11 -19 45 -23 69 -8 9 6 17 5 23
-3 6 -8 7 -7 4 4 -7 22 11 39 43 39 24 0 24 -2 -16 -39z m-64 9 c-20 -13 -43
-13 -35 0 3 6 16 10 28 10 18 0 19 -2 7 -10z m-74 -17 c6 -10 29 -24 50 -32
21 -8 42 -19 46 -24 4 -7 11 -7 22 2 8 7 30 11 48 9 l33 -3 7 -79 c8 -87 1
-106 -38 -106 -27 0 -40 16 -19 24 8 3 15 10 15 16 0 6 -12 4 -30 -5 -16 -8
-34 -15 -41 -15 -6 0 -18 -8 -26 -17 -14 -17 -14 -17 -9 0 6 19 -9 24 -18 5
-3 -7 -3 -1 0 15 6 28 -4 35 -24 15 -7 -7 -12 -8 -12 -2 0 28 104 60 145 44
14 -5 25 -6 25 -1 0 5 -7 11 -15 15 -8 3 -15 12 -15 21 0 8 -5 15 -11 15 -6 0
-9 -7 -5 -15 4 -11 -2 -15 -25 -15 -35 0 -104 -33 -112 -54 -6 -16 16 -40 26
-29 4 3 7 -1 7 -9 0 -9 7 -21 15 -28 13 -10 19 -10 33 2 37 32 42 31 42 -11 0
-34 -3 -41 -20 -41 -11 0 -20 -5 -20 -11 0 -7 11 -8 33 -3 56 13 72 10 75 -12
2 -11 -4 -27 -13 -34 -8 -7 -15 -17 -15 -23 0 -6 10 -1 23 11 13 12 27 19 32
15 4 -5 5 -2 1 5 -5 8 2 12 25 12 28 0 30 -2 18 -17 -13 -15 -12 -16 9 -11 40
11 25 -26 -28 -71 -55 -46 -83 -50 -88 -11 -5 36 -26 43 -110 41 -41 -1 -96 3
-123 10 -36 9 -65 10 -108 3 -51 -8 -58 -8 -53 6 3 8 -9 3 -27 -13 -19 -16
-43 -27 -55 -25 -19 3 -21 10 -22 81 -1 77 7 100 29 78 16 -16 27 -14 21 4
-10 26 26 17 38 -10 9 -19 8 -33 -5 -65 -8 -22 -12 -40 -7 -40 4 0 15 17 23
39 16 40 32 51 72 51 20 0 24 7 30 43 10 55 38 111 86 169 21 26 39 50 39 55
-1 4 -10 -3 -21 -16 -18 -22 -27 -24 -89 -22 -59 2 -68 0 -66 -14 1 -9 9 -21
17 -27 10 -7 7 -8 -13 -4 -16 4 -44 0 -64 -9 -45 -19 -55 -19 -30 0 21 16 13
37 -12 28 -9 -3 -3 8 15 25 19 18 39 29 47 26 8 -3 25 0 38 7 31 17 137 47
168 48 14 1 30 -7 36 -16z m-1109 -55 c-3 -8 -6 -5 -6 6 -1 11 2 17 5 13 3 -3
4 -12 1 -19z m262 -34 c15 -11 21 -23 18 -35 -3 -12 -1 -17 5 -13 7 5 9 -6 5
-32 -4 -24 -3 -31 2 -19 7 17 9 14 15 -18 10 -52 21 -46 21 12 0 27 -3 44 -7
38 -5 -8 -8 -6 -8 6 0 21 28 22 57 2 28 -20 47 -87 38 -134 -10 -55 -31 -81
-64 -81 -37 0 -62 10 -55 21 3 5 -1 6 -9 3 -19 -7 -60 45 -54 68 3 10 1 16 -3
13 -11 -7 -30 83 -30 140 0 40 2 45 23 45 12 0 33 -7 46 -16z m681 6 c0 -5 -5
-10 -11 -10 -5 0 -7 5 -4 10 3 6 8 10 11 10 2 0 4 -4 4 -10z m-985 -20 c10
-11 16 -20 13 -20 -3 0 -13 9 -23 20 -10 11 -16 20 -13 20 3 0 13 -9 23 -20z
m1053 13 c-10 -2 -26 -2 -35 0 -10 3 -2 5 17 5 19 0 27 -2 18 -5z m-123 -73
c-3 -5 -12 -10 -18 -10 -7 0 -6 4 3 10 19 12 23 12 15 0z m-841 -36 c3 -8 2
-12 -4 -9 -6 3 -10 10 -10 16 0 14 7 11 14 -7z m769 9 c-7 -2 -19 -2 -25 0 -7
3 -2 5 12 5 14 0 19 -2 13 -5z m64 -49 c-3 -3 -12 -4 -19 -1 -8 3 -5 6 6 6 11
1 17 -2 13 -5z m-210 -30 c-3 -3 -12 -4 -19 -1 -8 3 -5 6 6 6 11 1 17 -2 13
-5z"/>
<path d="M1379 1163 c-13 -16 -12 -17 4 -4 16 13 21 21 13 21 -2 0 -10 -8 -17
-17z"/>
<path d="M2042 963 c0 -10 -3 -27 -7 -38 -6 -17 -4 -17 14 4 22 25 23 42 3 49
-6 2 -11 -5 -10 -15z"/>
<path d="M1804 915 c-7 -18 3 -35 21 -35 21 0 28 19 15 35 -16 19 -29 19 -36
0z"/>
</g>
</svg>
